<svg id="Capa_1" enable-background="new 0 0 512 512" height="512" viewBox="0 0 512 512" width="512" xmlns="http://www.w3.org/2000/svg"><g><g><path d="m235.18 416h-225.18v40c0 11.05 8.95 20 20 20 0 0 241.08-.02 241.61-.06z" fill="#eefaff"/><path d="m366.4 396 16.59-16.59c15.62-15.62 15.62-40.95 0-56.57s-40.95-15.62-56.57 0l-42.43 42.42 15.98 97.16c7.33 8.33 18.07 13.58 30.03 13.58h72v-80z" fill="#eefaff"/><path d="m10 216v200h225.18l54.82-56.74v-143.26z" fill="#ff7d97"/><path d="m462 396c22.09 0 40 17.91 40 40s-17.91 40-40 40h-60v-80z" fill="#ff7d97"/><path d="m340.56 421.83c-13.245 13.245-30.442 30.442-42.43 42.43-15.623 15.623-40.945 15.625-56.57 0-15.609-15.609-15.633-40.937 0-56.57l42.43-42.43z" fill="#fff2a0"/><path d="m30 116v-60c0-11.05 8.95-20 20-20h200c11.05 0 20 8.95 20 20v60c-5.711 0-233.275 0-240 0z" fill="#ff7d97"/><g fill="#eefaff"><path d="m250 156h-20v-40c-31.113 0-129.192 0-160 0v40h-20c-22.09 0-40 17.91-40 40v20h280v-20c0-22.09-17.91-40-40-40z"/><path d="m210 296v40h-40v40h-40v-40h-40v-40h40v-40h40v40z"/></g></g><g><path d="m30 486h240c10.152 0 20.953-3.31 29.922-10.076 8.599 6.478 19.137 10.076 30.078 10.076h132c27.57 0 50-22.43 50-50s-22.43-50-50-50h-71.481c19.025-19.532 18.88-50.893-.458-70.231-19.495-19.494-51.216-19.494-70.712 0l-19.349 19.346v-139.115c0-27.57-22.43-50-50-50h-10v-20h30c5.523 0 10-4.477 10-10v-60c0-16.542-13.458-30-30-30h-200c-16.542 0-30 13.458-30 30v60c0 5.523 4.477 10 10 10h30v20h-10c-27.57 0-50 22.43-50 50v260c0 16.542 13.458 30 30 30zm-10-30v-30.01h200.848c-2.807 13.865.375 28.493 9.026 40.01h-199.874c-5.514 0-10-4.486-10-10zm263.994-76.594 42.424 42.424-35.359 35.359c-11.902 11.903-30.904 11.523-42.428 0-11.63-11.629-11.799-30.631 0-42.427zm30.727 82.405c15.982-15.982 39.806-39.806 55.811-55.811h21.468v60h-62c-5.431 0-10.699-1.478-15.279-4.189zm177.279-25.811c0 16.542-13.458 30-30 30h-50v-60h50c16.542 0 30 13.458 30 30zm-158.509-106.089c11.694-11.694 30.729-11.7 42.428 0 11.697 11.698 11.697 30.731 0 42.428-2.428 2.427 10.699-10.696-35.36 35.349l-42.422-42.423zm-293.491-273.911c0-5.514 4.486-10 10-10h200c5.514 0 10 4.486 10 10v50h-20v-30c0-5.523-4.477-10-10-10s-10 4.477-10 10v30h-20v-30c0-5.523-4.477-10-10-10s-10 4.477-10 10v30h-20v-30c0-5.523-4.477-10-10-10s-10 4.477-10 10v30h-20v-30c0-5.523-4.477-10-10-10s-10 4.477-10 10v30h-20v-30c0-5.523-4.477-10-10-10s-10 4.477-10 10v30h-20zm40 70h140v20h-140zm-30 40h200c16.542 0 30 13.458 30 30v10h-85c-5.523 0-10 4.477-10 10s4.477 10 10 10h85v129.113c-7.725 7.724-32.908 32.904-45.511 45.506-1.686 1.686-3.232 3.491-4.651 5.381h-209.838v-180h85c5.523 0 10-4.477 10-10s-4.477-10-10-10h-85v-10c0-16.542 13.458-30 30-30z"/><path d="m80 296v40c0 5.523 4.477 10 10 10h30v30c0 5.523 4.477 10 10 10h40c5.523 0 10-4.477 10-10v-30h30c5.523 0 10-4.477 10-10v-40c0-5.523-4.477-10-10-10h-30v-30c0-5.523-4.477-10-10-10h-40c-5.523 0-10 4.477-10 10v30h-30c-5.523 0-10 4.477-10 10zm20 10h30c5.523 0 10-4.477 10-10v-30h20v30c0 5.523 4.477 10 10 10h30v20h-30c-5.523 0-10 4.477-10 10v30h-20v-30c0-5.523-4.477-10-10-10h-30z"/><circle cx="150" cy="216" r="10"/></g></g></svg>